<mxfile host="Electron" agent="Mozilla/5.0 (Windows NT 10.0; Win64; x64) AppleWebKit/537.36 (KHTML, like Gecko) draw.io/28.0.6 Chrome/138.0.7204.100 Electron/37.2.3 Safari/537.36" version="28.0.6">
  <diagram id="KBIwsYY--AiB_v0YLguu" name="Page-1">
    <mxGraphModel dx="2691" dy="2370" grid="1" gridSize="10" guides="1" tooltips="1" connect="1" arrows="1" fold="1" page="1" pageScale="1" pageWidth="1654" pageHeight="1169" math="0" shadow="0">
      <root>
        <mxCell id="0" />
        <mxCell id="1" parent="0" />
        <mxCell id="_NCN2XURNJSdBfdFYyDq-112" value="" style="rounded=1;whiteSpace=wrap;html=1;strokeWidth=2;fillWeight=4;hachureGap=8;hachureAngle=45;fillColor=#fff2cc;strokeColor=#d6b656;fillStyle=zigzag;shadow=1;sketch=1;curveFitting=1;jiggle=2;" parent="1" vertex="1">
          <mxGeometry x="202" y="-324" width="140" height="99" as="geometry" />
        </mxCell>
        <mxCell id="62" value="" style="rounded=1;whiteSpace=wrap;html=1;strokeWidth=2;fillWeight=4;hachureGap=8;hachureAngle=45;fillColor=#fff2cc;strokeColor=#d6b656;fillStyle=zigzag;shadow=1;sketch=1;curveFitting=1;jiggle=2;" parent="1" vertex="1">
          <mxGeometry x="211" y="-332" width="140" height="99" as="geometry" />
        </mxCell>
        <mxCell id="64" value="&lt;span style=&quot;color: rgb(0, 0, 0); font-family: &amp;quot;Comic Sans MS&amp;quot;; text-wrap-mode: nowrap;&quot;&gt;&lt;font style=&quot;font-size: 15px;&quot;&gt;Apache Tika&lt;/font&gt;&lt;/span&gt;" style="rounded=1;whiteSpace=wrap;html=1;strokeWidth=2;fillWeight=4;hachureGap=8;hachureAngle=45;fillColor=#fff2cc;strokeColor=#d6b656;fillStyle=zigzag;shadow=1;sketch=1;curveFitting=1;jiggle=2;fontStyle=1;verticalAlign=bottom;" parent="1" vertex="1">
          <mxGeometry x="220" y="-336" width="131" height="93" as="geometry" />
        </mxCell>
        <mxCell id="74" value="" style="shape=ext;double=1;rounded=1;whiteSpace=wrap;html=1;fillColor=light-dark(#CFD2F7,#EDEDED);sketch=1;curveFitting=1;jiggle=2;shadow=0;strokeColor=#9673a6;fillStyle=zigzag;" parent="1" vertex="1">
          <mxGeometry x="180" y="-843" width="1000" height="580" as="geometry" />
        </mxCell>
        <mxCell id="52" value="" style="rounded=1;whiteSpace=wrap;html=1;strokeWidth=2;fillWeight=4;hachureGap=8;hachureAngle=45;fillColor=#f8cecc;strokeColor=#b85450;shadow=1;fillStyle=zigzag;sketch=1;curveFitting=1;jiggle=2;" parent="1" vertex="1">
          <mxGeometry x="280" y="-1002" width="140" height="80" as="geometry" />
        </mxCell>
        <mxCell id="53" value="" style="rounded=1;whiteSpace=wrap;html=1;strokeWidth=2;fillWeight=4;hachureGap=8;hachureAngle=45;fillColor=#ffe6cc;strokeColor=#d79b00;shadow=1;fillStyle=zigzag;sketch=1;curveFitting=1;jiggle=2;" parent="1" vertex="1">
          <mxGeometry x="271" y="-993" width="140" height="80" as="geometry" />
        </mxCell>
        <mxCell id="QEbaafIq8JvkUqfNBTGJ-113" style="edgeStyle=orthogonalEdgeStyle;rounded=0;sketch=1;hachureGap=4;jiggle=2;curveFitting=1;orthogonalLoop=1;jettySize=auto;html=1;exitX=0.999;exitY=0.484;exitDx=0;exitDy=0;fontFamily=Architects Daughter;fontSource=https%3A%2F%2Ffonts.googleapis.com%2Fcss%3Ffamily%3DArchitects%2BDaughter;entryX=0.5;entryY=0;entryDx=0;entryDy=0;endArrow=none;endFill=0;exitPerimeter=0;" parent="1" source="39" target="63" edge="1">
          <mxGeometry relative="1" as="geometry">
            <mxPoint x="295.25" y="-300" as="sourcePoint" />
            <mxPoint x="732.25" y="-225" as="targetPoint" />
            <Array as="points">
              <mxPoint x="460" y="-401" />
              <mxPoint x="460" y="-300" />
              <mxPoint x="732" y="-300" />
            </Array>
          </mxGeometry>
        </mxCell>
        <mxCell id="4" value="" style="rounded=1;whiteSpace=wrap;html=1;strokeWidth=2;fillWeight=4;hachureGap=8;hachureAngle=45;fillColor=light-dark(#0071F0,#198CC4);shadow=1;sketch=1;curveFitting=1;jiggle=2;" parent="1" vertex="1">
          <mxGeometry x="209" y="-414" width="115" height="70" as="geometry" />
        </mxCell>
        <mxCell id="38" value="" style="rounded=1;whiteSpace=wrap;html=1;strokeWidth=2;fillWeight=4;hachureGap=8;hachureAngle=45;fillColor=light-dark(#0071F0,#198CC4);shadow=1;sketch=1;curveFitting=1;jiggle=2;" parent="1" vertex="1">
          <mxGeometry x="223" y="-424" width="115" height="70" as="geometry" />
        </mxCell>
        <mxCell id="fkxp-w3N0kC8W9ppKelV-115" style="edgeStyle=orthogonalEdgeStyle;rounded=0;sketch=1;hachureGap=4;jiggle=2;curveFitting=1;orthogonalLoop=1;jettySize=auto;html=1;entryX=0.25;entryY=0;entryDx=0;entryDy=0;fontFamily=Architects Daughter;fontSource=https%3A%2F%2Ffonts.googleapis.com%2Fcss%3Ffamily%3DArchitects%2BDaughter;verticalAlign=bottom;endArrow=none;endFill=0;exitX=0;exitY=0.5;exitDx=0;exitDy=0;" parent="1" source="Zqc7V0Ubj0E-lgHhysYY-121" target="M9iqOvp1g94WVJkQ8rMG-64" edge="1">
          <mxGeometry relative="1" as="geometry">
            <mxPoint x="800" y="-740" as="sourcePoint" />
            <Array as="points">
              <mxPoint x="694" y="-780" />
              <mxPoint x="885" y="-780" />
            </Array>
          </mxGeometry>
        </mxCell>
        <mxCell id="M9iqOvp1g94WVJkQ8rMG-46" value="" style="rounded=1;whiteSpace=wrap;html=1;strokeWidth=2;fillWeight=4;hachureGap=8;hachureAngle=45;fillColor=#f8cecc;align=center;verticalAlign=middle;fontFamily=Comic Sans MS;fontSize=16;strokeColor=#b85450;fillStyle=zigzag;shadow=1;sketch=1;curveFitting=1;jiggle=2;" parent="1" vertex="1">
          <mxGeometry x="651" y="-237" width="146.5" height="84" as="geometry" />
        </mxCell>
        <mxCell id="Zqc7V0Ubj0E-lgHhysYY-134" style="edgeStyle=orthogonalEdgeStyle;rounded=0;sketch=1;hachureGap=4;jiggle=2;curveFitting=1;orthogonalLoop=1;jettySize=auto;html=1;exitX=0.25;exitY=1;exitDx=0;exitDy=0;entryX=0.25;entryY=1;entryDx=0;entryDy=0;fontFamily=Architects Daughter;fontSource=https%3A%2F%2Ffonts.googleapis.com%2Fcss%3Ffamily%3DArchitects%2BDaughter;endArrow=none;endFill=0;" parent="1" source="45" target="M9iqOvp1g94WVJkQ8rMG-66" edge="1">
          <mxGeometry relative="1" as="geometry">
            <Array as="points">
              <mxPoint x="694" y="-340" />
              <mxPoint x="905" y="-340" />
            </Array>
          </mxGeometry>
        </mxCell>
        <mxCell id="45" value="&lt;span style=&quot;color: rgb(0, 0, 0); font-family: &amp;quot;Comic Sans MS&amp;quot;; text-wrap-mode: nowrap;&quot;&gt;Golang&amp;nbsp;&lt;/span&gt;&lt;span style=&quot;font-family: &amp;quot;Comic Sans MS&amp;quot;; text-wrap-mode: nowrap; background-color: transparent;&quot;&gt;Terminal&amp;nbsp;&lt;/span&gt;&lt;div&gt;&lt;span style=&quot;font-family: &amp;quot;Comic Sans MS&amp;quot;; text-wrap-mode: nowrap; background-color: transparent;&quot;&gt;user-interface&lt;/span&gt;&lt;div&gt;&lt;span style=&quot;color: rgb(0, 0, 0); font-family: &amp;quot;Comic Sans MS&amp;quot;; text-wrap-mode: nowrap;&quot;&gt;Publisher&lt;/span&gt;&lt;/div&gt;&lt;/div&gt;" style="rounded=1;whiteSpace=wrap;html=1;strokeWidth=2;fillWeight=4;hachureGap=8;hachureAngle=45;fillColor=light-dark(#66B2FF,#198CC4);shadow=1;sketch=1;curveFitting=1;jiggle=2;fontStyle=1" parent="1" vertex="1">
          <mxGeometry x="659" y="-451.76" width="140" height="70" as="geometry" />
        </mxCell>
        <mxCell id="M9iqOvp1g94WVJkQ8rMG-64" value="" style="rounded=1;whiteSpace=wrap;html=1;strokeWidth=2;fillWeight=4;hachureGap=8;hachureAngle=45;fillColor=light-dark(#333333,#198CC4);shadow=1;sketch=1;curveFitting=1;jiggle=2;" parent="1" vertex="1">
          <mxGeometry x="852" y="-537" width="130" height="76.24" as="geometry" />
        </mxCell>
        <mxCell id="M9iqOvp1g94WVJkQ8rMG-65" value="" style="rounded=1;whiteSpace=wrap;html=1;strokeWidth=2;fillWeight=4;hachureGap=8;hachureAngle=45;fillColor=light-dark(#333333,#198CC4);shadow=1;sketch=1;curveFitting=1;jiggle=2;" parent="1" vertex="1">
          <mxGeometry x="862" y="-530.25" width="130" height="76.24" as="geometry" />
        </mxCell>
        <mxCell id="68" style="edgeStyle=none;html=1;entryX=1;entryY=0.75;entryDx=0;entryDy=0;endArrow=none;endFill=0;shadow=1;sketch=1;curveFitting=1;jiggle=2;exitX=0.5;exitY=1;exitDx=0;exitDy=0;" parent="1" source="M9iqOvp1g94WVJkQ8rMG-66" target="63" edge="1">
          <mxGeometry relative="1" as="geometry">
            <mxPoint x="980" y="-450" as="sourcePoint" />
            <Array as="points">
              <mxPoint x="940" y="-180" />
            </Array>
          </mxGeometry>
        </mxCell>
        <mxCell id="69" style="edgeStyle=none;html=1;entryX=1;entryY=0.5;entryDx=0;entryDy=0;endArrow=none;endFill=0;shadow=1;sketch=1;curveFitting=1;jiggle=2;exitX=0.75;exitY=0;exitDx=0;exitDy=0;" parent="1" source="M9iqOvp1g94WVJkQ8rMG-64" target="66" edge="1">
          <mxGeometry relative="1" as="geometry">
            <Array as="points">
              <mxPoint x="950" y="-580" />
              <mxPoint x="950" y="-640" />
              <mxPoint x="1140" y="-640" />
              <mxPoint x="1140" y="-738" />
            </Array>
          </mxGeometry>
        </mxCell>
        <mxCell id="WdYB9u-n-fzQhLBQgMhI-112" style="edgeStyle=orthogonalEdgeStyle;rounded=0;sketch=1;hachureGap=4;jiggle=2;curveFitting=1;orthogonalLoop=1;jettySize=auto;html=1;exitX=1;exitY=0.5;exitDx=0;exitDy=0;fontFamily=Architects Daughter;fontSource=https%3A%2F%2Ffonts.googleapis.com%2Fcss%3Ffamily%3DArchitects%2BDaughter;endArrow=none;endFill=0;" parent="1" source="M9iqOvp1g94WVJkQ8rMG-66" edge="1">
          <mxGeometry relative="1" as="geometry">
            <mxPoint x="350" y="-1050" as="targetPoint" />
            <mxPoint x="1003" y="-466.5799999999999" as="sourcePoint" />
            <Array as="points">
              <mxPoint x="1220" y="-483" />
              <mxPoint x="1220" y="-1090" />
              <mxPoint x="350" y="-1090" />
            </Array>
          </mxGeometry>
        </mxCell>
        <mxCell id="M9iqOvp1g94WVJkQ8rMG-66" value="&lt;span style=&quot;font-family: &amp;quot;Comic Sans MS&amp;quot;; text-wrap-mode: nowrap;&quot;&gt;&lt;font style=&quot;color: rgb(255, 255, 255);&quot;&gt;Java&lt;br&gt;&lt;/font&gt;&lt;/span&gt;&lt;div&gt;&lt;span style=&quot;background-color: transparent; text-wrap-mode: nowrap;&quot;&gt;&lt;font face=&quot;Comic Sans MS&quot; color=&quot;#ffffff&quot;&gt;Spring for Apache&amp;nbsp;&lt;/font&gt;&lt;/span&gt;&lt;/div&gt;&lt;div&gt;&lt;span style=&quot;background-color: transparent; text-wrap-mode: nowrap;&quot;&gt;&lt;font face=&quot;Comic Sans MS&quot; color=&quot;#ffffff&quot;&gt;Kafka&amp;nbsp;&lt;/font&gt;&lt;/span&gt;&lt;span style=&quot;font-family: &amp;quot;Comic Sans MS&amp;quot;; text-wrap-mode: nowrap;&quot;&gt;&lt;font style=&quot;color: rgb(255, 255, 255);&quot;&gt;Web Services&amp;nbsp;&lt;/font&gt;&lt;/span&gt;&lt;div&gt;&lt;span style=&quot;font-family: &amp;quot;Comic Sans MS&amp;quot;; text-wrap-mode: nowrap;&quot;&gt;&lt;font style=&quot;color: rgb(255, 255, 255);&quot;&gt;Publisher&lt;/font&gt;&lt;/span&gt;&lt;/div&gt;&lt;/div&gt;" style="rounded=1;whiteSpace=wrap;html=1;strokeWidth=2;fillWeight=4;hachureGap=8;hachureAngle=45;fillColor=light-dark(#333333,#198CC4);shadow=1;sketch=1;curveFitting=1;jiggle=2;fontStyle=1" parent="1" vertex="1">
          <mxGeometry x="873" y="-520.76" width="130" height="76.24" as="geometry" />
        </mxCell>
        <mxCell id="46" value="" style="rounded=1;whiteSpace=wrap;html=1;strokeWidth=2;fillWeight=4;hachureGap=8;hachureAngle=45;fillColor=#d5e8d4;strokeColor=#82b366;glass=0;shadow=1;fillStyle=zigzag;sketch=1;curveFitting=1;jiggle=2;" parent="1" vertex="1">
          <mxGeometry x="261" y="-983" width="140" height="80" as="geometry" />
        </mxCell>
        <mxCell id="5vr9LRPLr2MephbGbz9w-108" style="edgeStyle=orthogonalEdgeStyle;rounded=0;sketch=1;hachureGap=4;jiggle=2;curveFitting=1;orthogonalLoop=1;jettySize=auto;html=1;entryX=0.5;entryY=0;entryDx=0;entryDy=0;fontFamily=Architects Daughter;fontSource=https%3A%2F%2Ffonts.googleapis.com%2Fcss%3Ffamily%3DArchitects%2BDaughter;endArrow=none;endFill=0;exitX=0.471;exitY=1.025;exitDx=0;exitDy=0;exitPerimeter=0;" edge="1" parent="1" source="46" target="fkxp-w3N0kC8W9ppKelV-113">
          <mxGeometry relative="1" as="geometry" />
        </mxCell>
        <mxCell id="58" value="&lt;span style=&quot;font-family: &amp;quot;Comic Sans MS&amp;quot;;&quot;&gt;Ory&lt;/span&gt;&lt;span style=&quot;font-family: &amp;quot;Comic Sans MS&amp;quot;; background-color: transparent;&quot;&gt;: IAM &amp;amp; CIAM&lt;/span&gt;&lt;div style=&quot;font-family: &amp;quot;Comic Sans MS&amp;quot;;&quot;&gt;&lt;span style=&quot;background-color: transparent;&quot;&gt;&amp;nbsp;w/ Identities mgmt&amp;nbsp;&lt;/span&gt;&lt;/div&gt;" style="text;html=1;align=center;verticalAlign=middle;resizable=0;points=[];autosize=1;strokeColor=none;fillColor=none;shadow=1;fontStyle=1;sketch=1;curveFitting=1;jiggle=2;" parent="1" vertex="1">
          <mxGeometry x="260.5" y="-962" width="140" height="40" as="geometry" />
        </mxCell>
        <mxCell id="61" value="" style="rounded=1;whiteSpace=wrap;html=1;strokeWidth=2;fillWeight=4;hachureGap=8;hachureAngle=45;fillColor=#d5e8d4;shadow=1;strokeColor=#82b366;sketch=1;curveFitting=1;jiggle=2;" parent="1" vertex="1">
          <mxGeometry x="944" y="-770.39" width="140" height="87.39" as="geometry" />
        </mxCell>
        <mxCell id="105" style="edgeStyle=none;html=1;sketch=1;curveFitting=1;jiggle=2;endArrow=none;endFill=0;exitX=0.5;exitY=1;exitDx=0;exitDy=0;entryX=0.5;entryY=0;entryDx=0;entryDy=0;" parent="1" source="M9iqOvp1g94WVJkQ8rMG-46" target="52" edge="1">
          <mxGeometry relative="1" as="geometry">
            <Array as="points">
              <mxPoint x="724" y="-120" />
              <mxPoint x="440" y="-120" />
              <mxPoint x="20" y="-120" />
              <mxPoint x="20" y="-600" />
              <mxPoint x="20" y="-1050" />
              <mxPoint x="350" y="-1053" />
            </Array>
            <mxPoint x="390" y="-1010" as="targetPoint" />
          </mxGeometry>
        </mxCell>
        <mxCell id="63" value="&lt;div&gt;&lt;font style=&quot;font-size: 14px;&quot; color=&quot;#4d4d4d&quot;&gt;MinIO&lt;/font&gt;&lt;/div&gt;&lt;div&gt;&lt;font style=&quot;font-size: 14px;&quot; color=&quot;#4d4d4d&quot;&gt;S3 buckets&lt;/font&gt;&lt;/div&gt;" style="rounded=1;whiteSpace=wrap;html=1;strokeWidth=2;fillWeight=4;hachureGap=8;hachureAngle=45;fillColor=#f8cecc;align=center;verticalAlign=middle;fontFamily=Comic Sans MS;fontSize=16;strokeColor=#b85450;fillStyle=zigzag;shadow=1;sketch=1;curveFitting=1;jiggle=2;fontStyle=1" parent="1" vertex="1">
          <mxGeometry x="661" y="-245" width="142.5" height="82" as="geometry" />
        </mxCell>
        <mxCell id="_NCN2XURNJSdBfdFYyDq-114" style="edgeStyle=orthogonalEdgeStyle;rounded=0;sketch=1;hachureGap=4;jiggle=2;curveFitting=1;orthogonalLoop=1;jettySize=auto;html=1;entryX=1;entryY=0.75;entryDx=0;entryDy=0;fontFamily=Architects Daughter;fontSource=https%3A%2F%2Ffonts.googleapis.com%2Fcss%3Ffamily%3DArchitects%2BDaughter;endArrow=none;endFill=0;exitX=0.052;exitY=-0.001;exitDx=0;exitDy=0;exitPerimeter=0;" parent="1" target="39" edge="1">
          <mxGeometry relative="1" as="geometry">
            <Array as="points">
              <mxPoint x="264" y="-170" />
              <mxPoint x="420" y="-170" />
              <mxPoint x="420" y="-388" />
              <mxPoint x="350" y="-388" />
            </Array>
            <mxPoint x="264.3399999999999" y="-223.55999999999995" as="sourcePoint" />
            <mxPoint x="353.5" y="-427.5" as="targetPoint" />
          </mxGeometry>
        </mxCell>
        <mxCell id="66" value="&lt;span style=&quot;color: rgb(0, 0, 0); font-family: &amp;quot;Comic Sans MS&amp;quot;; text-wrap-mode: nowrap;&quot;&gt;&lt;font style=&quot;font-size: 15px;&quot;&gt;&lt;span&gt;MongoDB&lt;/span&gt;&lt;/font&gt;&lt;/span&gt;" style="rounded=1;whiteSpace=wrap;html=1;strokeWidth=2;fillWeight=4;hachureGap=8;hachureAngle=45;fillColor=#d5e8d4;shadow=1;strokeColor=#82b366;sketch=1;curveFitting=1;jiggle=2;fontStyle=1" parent="1" vertex="1">
          <mxGeometry x="954" y="-783" width="140" height="90" as="geometry" />
        </mxCell>
        <mxCell id="71" style="edgeStyle=none;html=1;entryX=1.003;entryY=0.647;entryDx=0;entryDy=0;entryPerimeter=0;endArrow=none;endFill=0;shadow=1;sketch=1;curveFitting=1;jiggle=2;exitX=0;exitY=0.5;exitDx=0;exitDy=0;" parent="1" source="M9iqOvp1g94WVJkQ8rMG-64" target="56" edge="1">
          <mxGeometry relative="1" as="geometry">
            <mxPoint x="657.8199999999997" y="-495.43600000000015" as="targetPoint" />
          </mxGeometry>
        </mxCell>
        <mxCell id="56" value="&lt;font style=&quot;font-size: 14px;&quot;&gt;Kafka&lt;/font&gt;&lt;div&gt;&lt;div&gt;&lt;font style=&quot;font-size: 14px;&quot;&gt;&lt;br&gt;&lt;/font&gt;&lt;/div&gt;&lt;div&gt;&lt;font style=&quot;font-size: 14px;&quot;&gt;SASL/GSSAPI&lt;/font&gt;&lt;/div&gt;&lt;div&gt;&lt;font style=&quot;font-size: 14px;&quot;&gt;Authentication&lt;/font&gt;&lt;/div&gt;&lt;/div&gt;" style="shape=cylinder3;whiteSpace=wrap;html=1;boundedLbl=1;backgroundOutline=1;size=15;fillColor=#1ba1e2;strokeColor=#006EAF;fillStyle=zigzag;shadow=1;fontStyle=1;strokeWidth=1;fontColor=#000000;sketch=1;curveFitting=1;jiggle=2;fontFamily=Comic Sans MS;" parent="1" vertex="1">
          <mxGeometry x="496" y="-793" width="109" height="459" as="geometry" />
        </mxCell>
        <mxCell id="92" style="edgeStyle=none;html=1;sketch=1;curveFitting=1;jiggle=2;endArrow=none;endFill=0;exitX=0.385;exitY=1.067;exitDx=0;exitDy=0;exitPerimeter=0;entryX=0.5;entryY=0;entryDx=0;entryDy=0;" parent="1" source="Zqc7V0Ubj0E-lgHhysYY-128" target="52" edge="1">
          <mxGeometry relative="1" as="geometry">
            <Array as="points">
              <mxPoint x="640" y="-960" />
              <mxPoint x="640" y="-1050" />
              <mxPoint x="350" y="-1053" />
            </Array>
            <mxPoint x="844.9999999999998" y="-961.9999999999999" as="sourcePoint" />
            <mxPoint x="330" y="-1010" as="targetPoint" />
          </mxGeometry>
        </mxCell>
        <mxCell id="103" value="book-looker-realm (anywhere)" style="text;html=1;align=center;verticalAlign=middle;resizable=0;points=[];autosize=1;strokeColor=none;fillColor=none;fontFamily=Comic Sans MS;fontStyle=1;fontSize=24;" parent="1" vertex="1">
          <mxGeometry x="531" y="-843" width="360" height="40" as="geometry" />
        </mxCell>
        <mxCell id="104" value="Remote locations: &lt;span style=&quot;font-weight: normal;&quot;&gt;Only HTTPS access (443)&lt;/span&gt;" style="text;html=1;align=center;verticalAlign=middle;resizable=0;points=[];autosize=1;strokeColor=none;fillColor=none;fontFamily=Comic Sans MS;fontStyle=1;fontSize=19;" parent="1" vertex="1">
          <mxGeometry x="668" y="-1042" width="410" height="40" as="geometry" />
        </mxCell>
        <mxCell id="107" value="OAuth2/OIDC Authentication&lt;div&gt;and Authorization Flows&lt;/div&gt;" style="text;html=1;align=center;verticalAlign=middle;resizable=0;points=[];autosize=1;strokeColor=none;fillColor=none;fontFamily=Comic Sans MS;fontStyle=1;fontSize=16;" parent="1" vertex="1">
          <mxGeometry x="60" y="-1109" width="250" height="50" as="geometry" />
        </mxCell>
        <mxCell id="108" value="&lt;div&gt;Kerberos:&lt;/div&gt;Principal &lt;u&gt;Service&lt;/u&gt;&amp;nbsp;&lt;span style=&quot;background-color: transparent;&quot;&gt;Authentication&lt;/span&gt;" style="text;html=1;align=center;verticalAlign=middle;resizable=0;points=[];autosize=1;strokeColor=none;fillColor=none;fontFamily=Comic Sans MS;" parent="1" vertex="1">
          <mxGeometry x="940" y="-681" width="200" height="40" as="geometry" />
        </mxCell>
        <mxCell id="BD4OuOrhCKFyo7IxdLxv-112" value="&lt;div&gt;Kerberos:&lt;/div&gt;Principal &lt;u&gt;Service&lt;/u&gt;&amp;nbsp;&lt;span style=&quot;background-color: transparent;&quot;&gt;Authentication&lt;/span&gt;" style="text;html=1;align=center;verticalAlign=middle;resizable=0;points=[];autosize=1;strokeColor=none;fillColor=none;fontFamily=Comic Sans MS;" parent="1" vertex="1">
          <mxGeometry x="296" y="-491.76" width="200" height="40" as="geometry" />
        </mxCell>
        <mxCell id="39" value="&lt;span style=&quot;color: rgb(0, 0, 0); font-family: &amp;quot;Comic Sans MS&amp;quot;; text-wrap-mode: nowrap;&quot;&gt;Golang Subscriber&lt;/span&gt;&lt;div&gt;&lt;span style=&quot;color: rgb(0, 0, 0); font-family: &amp;quot;Comic Sans MS&amp;quot;; text-wrap-mode: nowrap;&quot;&gt;workers&lt;/span&gt;&lt;/div&gt;" style="rounded=1;whiteSpace=wrap;html=1;strokeWidth=2;fillWeight=4;hachureGap=8;hachureAngle=45;fillColor=light-dark(#0071F0,#198CC4);shadow=1;sketch=1;curveFitting=1;jiggle=2;fontStyle=1" parent="1" vertex="1">
          <mxGeometry x="235" y="-435" width="115" height="70" as="geometry" />
        </mxCell>
        <mxCell id="_NCN2XURNJSdBfdFYyDq-113" value="localhost&lt;div&gt;HTTP&lt;/div&gt;" style="text;html=1;align=center;verticalAlign=middle;resizable=0;points=[];autosize=1;strokeColor=none;fillColor=none;fontFamily=Architects Daughter;fontSource=https%3A%2F%2Ffonts.googleapis.com%2Fcss%3Ffamily%3DArchitects%2BDaughter;" parent="1" vertex="1">
          <mxGeometry x="350" y="-382" width="70" height="40" as="geometry" />
        </mxCell>
        <mxCell id="_NCN2XURNJSdBfdFYyDq-115" value="&lt;b&gt;Always as a sidecar&lt;/b&gt;&lt;div&gt;&lt;b&gt;container running on each&lt;/b&gt;&lt;/div&gt;&lt;div&gt;&lt;b&gt;subscriber worker POD&lt;/b&gt;&lt;/div&gt;" style="text;html=1;align=center;verticalAlign=middle;resizable=0;points=[];autosize=1;strokeColor=none;fillColor=none;fontFamily=Architects Daughter;fontSource=https%3A%2F%2Ffonts.googleapis.com%2Fcss%3Ffamily%3DArchitects%2BDaughter;" parent="1" vertex="1">
          <mxGeometry x="256" y="-225" width="170" height="60" as="geometry" />
        </mxCell>
        <mxCell id="fkxp-w3N0kC8W9ppKelV-112" value="&lt;div&gt;Kerberos:&lt;/div&gt;Principal &lt;u&gt;User&lt;/u&gt;&amp;nbsp;&lt;span style=&quot;background-color: transparent;&quot;&gt;Authentication&lt;/span&gt;&lt;div&gt;&lt;span style=&quot;background-color: transparent;&quot;&gt;Current logged user publishing in the topic&lt;/span&gt;&lt;/div&gt;" style="text;html=1;align=center;verticalAlign=middle;resizable=0;points=[];autosize=1;strokeColor=none;fillColor=none;fontFamily=Comic Sans MS;" parent="1" vertex="1">
          <mxGeometry x="596" y="-553" width="260" height="60" as="geometry" />
        </mxCell>
        <mxCell id="fkxp-w3N0kC8W9ppKelV-113" value="" style="rounded=1;whiteSpace=wrap;html=1;strokeWidth=2;fillWeight=4;hachureGap=8;hachureAngle=45;fillColor=#d0cee2;shadow=1;sketch=1;curveFitting=1;jiggle=2;fontStyle=1;strokeColor=#56517e;" parent="1" vertex="1">
          <mxGeometry x="214" y="-820" width="226" height="130" as="geometry" />
        </mxCell>
        <mxCell id="M9iqOvp1g94WVJkQ8rMG-61" value="&lt;span style=&quot;font-size: 14px;&quot;&gt;&lt;span&gt;Kerby REALM:&lt;/span&gt;&lt;/span&gt;&lt;div&gt;&lt;span style=&quot;font-size: 14px;&quot;&gt;KDC and kerberos server implementation&lt;/span&gt;&lt;/div&gt;" style="ellipse;whiteSpace=wrap;html=1;strokeWidth=2;fillWeight=2;hachureGap=8;fillColor=#e1d5e7;fillStyle=zigzag;fontFamily=Architects Daughter;fontSource=https%3A%2F%2Ffonts.googleapis.com%2Fcss%3Ffamily%3DArchitects%2BDaughter;strokeColor=#9673a6;shadow=1;sketch=1;curveFitting=1;jiggle=2;fontStyle=1" parent="1" vertex="1">
          <mxGeometry x="233.5" y="-808" width="167" height="80" as="geometry" />
        </mxCell>
        <mxCell id="fkxp-w3N0kC8W9ppKelV-114" value="kerby-instuments&amp;nbsp;&lt;span style=&quot;background-color: transparent; color: light-dark(rgb(0, 0, 0), rgb(255, 255, 255));&quot;&gt;Spring REST API&lt;/span&gt;" style="text;html=1;align=center;verticalAlign=middle;resizable=0;points=[];autosize=1;strokeColor=none;fillColor=none;fontFamily=Comic Sans MS;fontStyle=1" parent="1" vertex="1">
          <mxGeometry x="214" y="-728" width="220" height="30" as="geometry" />
        </mxCell>
        <mxCell id="fkxp-w3N0kC8W9ppKelV-117" value="" style="rounded=1;whiteSpace=wrap;html=1;strokeWidth=2;fillWeight=4;hachureGap=8;hachureAngle=45;fillColor=light-dark(#9090FF,#198CC4);shadow=1;sketch=1;curveFitting=1;jiggle=2;fontStyle=1;verticalAlign=middle;align=center;" parent="1" vertex="1">
          <mxGeometry x="720" y="-670" width="72" height="50" as="geometry" />
        </mxCell>
        <mxCell id="Zqc7V0Ubj0E-lgHhysYY-112" style="edgeStyle=orthogonalEdgeStyle;rounded=0;sketch=1;hachureGap=4;jiggle=2;curveFitting=1;orthogonalLoop=1;jettySize=auto;html=1;exitX=0.5;exitY=0;exitDx=0;exitDy=0;fontFamily=Architects Daughter;fontSource=https%3A%2F%2Ffonts.googleapis.com%2Fcss%3Ffamily%3DArchitects%2BDaughter;entryX=-0.009;entryY=0.662;entryDx=0;entryDy=0;entryPerimeter=0;endArrow=none;endFill=0;" parent="1" source="39" target="56" edge="1">
          <mxGeometry relative="1" as="geometry">
            <mxPoint x="490" y="-449" as="targetPoint" />
            <Array as="points">
              <mxPoint x="293" y="-490" />
              <mxPoint x="496" y="-490" />
            </Array>
          </mxGeometry>
        </mxCell>
        <mxCell id="Zqc7V0Ubj0E-lgHhysYY-113" value="&lt;span style=&quot;font-family: Helvetica; font-weight: 700; background-color: transparent;&quot;&gt;&lt;font face=&quot;Comic Sans MS&quot;&gt;JavaFX&lt;/font&gt;&lt;/span&gt;&lt;span style=&quot;color: light-dark(rgb(0, 0, 0), rgb(255, 255, 255)); font-weight: 700; background-color: transparent; font-family: &amp;quot;Comic Sans MS&amp;quot;;&quot;&gt;&amp;nbsp;mobile/desktop&amp;nbsp;&lt;/span&gt;&lt;div&gt;&lt;span style=&quot;color: light-dark(rgb(0, 0, 0), rgb(255, 255, 255)); font-weight: 700; background-color: transparent; font-family: &amp;quot;Comic Sans MS&amp;quot;;&quot;&gt;Modern GUI&lt;/span&gt;&lt;/div&gt;" style="text;html=1;align=center;verticalAlign=middle;resizable=0;points=[];autosize=1;strokeColor=none;fillColor=none;fontFamily=Architects Daughter;fontSource=https%3A%2F%2Ffonts.googleapis.com%2Fcss%3Ffamily%3DArchitects%2BDaughter;" parent="1" vertex="1">
          <mxGeometry x="706" y="-720" width="160" height="50" as="geometry" />
        </mxCell>
        <mxCell id="Zqc7V0Ubj0E-lgHhysYY-114" value="" style="rounded=1;whiteSpace=wrap;html=1;strokeWidth=2;fillWeight=4;hachureGap=8;hachureAngle=45;fillColor=light-dark(#9090FF,#198CC4);shadow=1;sketch=1;curveFitting=1;jiggle=2;fontStyle=1;verticalAlign=middle;align=center;" parent="1" vertex="1">
          <mxGeometry x="710" y="-660" width="72" height="50" as="geometry" />
        </mxCell>
        <mxCell id="Zqc7V0Ubj0E-lgHhysYY-115" value="&lt;div&gt;&lt;span style=&quot;font-family: &amp;quot;Comic Sans MS&amp;quot;; text-wrap-mode: nowrap; background-color: transparent;&quot;&gt;Publisher&lt;/span&gt;&lt;/div&gt;" style="rounded=1;whiteSpace=wrap;html=1;strokeWidth=2;fillWeight=4;hachureGap=8;hachureAngle=45;fillColor=light-dark(#9090FF,#198CC4);shadow=1;sketch=1;curveFitting=1;jiggle=2;fontStyle=1;verticalAlign=middle;align=center;" parent="1" vertex="1">
          <mxGeometry x="699" y="-650" width="72" height="50" as="geometry" />
        </mxCell>
        <mxCell id="Zqc7V0Ubj0E-lgHhysYY-116" value="" style="rounded=1;whiteSpace=wrap;html=1;strokeWidth=2;fillWeight=4;hachureGap=8;hachureAngle=45;fillColor=light-dark(#9090FF,#198CC4);shadow=1;sketch=1;curveFitting=1;jiggle=2;fontStyle=1;verticalAlign=middle;align=center;rotation=90;" parent="1" vertex="1">
          <mxGeometry x="651" y="-690" width="52" height="30" as="geometry" />
        </mxCell>
        <mxCell id="Zqc7V0Ubj0E-lgHhysYY-120" value="" style="rounded=1;whiteSpace=wrap;html=1;strokeWidth=2;fillWeight=4;hachureGap=8;hachureAngle=45;fillColor=light-dark(#9090FF,#198CC4);shadow=1;sketch=1;curveFitting=1;jiggle=2;fontStyle=1;verticalAlign=middle;align=center;rotation=90;" parent="1" vertex="1">
          <mxGeometry x="659" y="-696" width="52" height="30" as="geometry" />
        </mxCell>
        <mxCell id="Zqc7V0Ubj0E-lgHhysYY-121" value="" style="rounded=1;whiteSpace=wrap;html=1;strokeWidth=2;fillWeight=4;hachureGap=8;hachureAngle=45;fillColor=light-dark(#9090FF,#198CC4);shadow=1;sketch=1;curveFitting=1;jiggle=2;fontStyle=1;verticalAlign=middle;align=center;rotation=90;" parent="1" vertex="1">
          <mxGeometry x="668" y="-706" width="52" height="30" as="geometry" />
        </mxCell>
        <mxCell id="Zqc7V0Ubj0E-lgHhysYY-117" value="PUB" style="text;html=1;align=center;verticalAlign=middle;resizable=0;points=[];autosize=1;strokeColor=none;fillColor=none;fontFamily=Architects Daughter;fontSource=https%3A%2F%2Ffonts.googleapis.com%2Fcss%3Ffamily%3DArchitects%2BDaughter;fontStyle=1" parent="1" vertex="1">
          <mxGeometry x="670" y="-705" width="50" height="30" as="geometry" />
        </mxCell>
        <mxCell id="Zqc7V0Ubj0E-lgHhysYY-122" value="kerberos SSO&amp;nbsp;&lt;span style=&quot;background-color: transparent; color: light-dark(rgb(0, 0, 0), rgb(255, 255, 255));&quot;&gt;Authentication&lt;/span&gt;" style="text;html=1;align=center;verticalAlign=middle;resizable=0;points=[];autosize=1;strokeColor=none;fillColor=none;fontFamily=Architects Daughter;fontSource=https%3A%2F%2Ffonts.googleapis.com%2Fcss%3Ffamily%3DArchitects%2BDaughter;fontStyle=1" parent="1" vertex="1">
          <mxGeometry x="695" y="-784" width="190" height="30" as="geometry" />
        </mxCell>
        <mxCell id="Zqc7V0Ubj0E-lgHhysYY-123" value="Authorization Code,&amp;nbsp;Client Credentials&lt;div&gt;OAuth2 Authorization flows&lt;/div&gt;" style="text;html=1;align=center;verticalAlign=middle;resizable=0;points=[];autosize=1;strokeColor=none;fillColor=none;fontFamily=Architects Daughter;fontSource=https%3A%2F%2Ffonts.googleapis.com%2Fcss%3Ffamily%3DArchitects%2BDaughter;fontStyle=1" parent="1" vertex="1">
          <mxGeometry x="651" y="-1002" width="230" height="40" as="geometry" />
        </mxCell>
        <mxCell id="Zqc7V0Ubj0E-lgHhysYY-124" style="edgeStyle=orthogonalEdgeStyle;rounded=0;sketch=1;hachureGap=4;jiggle=2;curveFitting=1;orthogonalLoop=1;jettySize=auto;html=1;exitX=0.5;exitY=1;exitDx=0;exitDy=0;entryX=0.468;entryY=0.005;entryDx=0;entryDy=0;entryPerimeter=0;fontFamily=Architects Daughter;fontSource=https%3A%2F%2Ffonts.googleapis.com%2Fcss%3Ffamily%3DArchitects%2BDaughter;verticalAlign=bottom;endArrow=none;endFill=0;" parent="1" target="M9iqOvp1g94WVJkQ8rMG-64" edge="1">
          <mxGeometry relative="1" as="geometry">
            <mxPoint x="912.9999999999998" y="-926.9999999999999" as="sourcePoint" />
            <Array as="points">
              <mxPoint x="913" y="-740" />
              <mxPoint x="913" y="-740" />
            </Array>
          </mxGeometry>
        </mxCell>
        <mxCell id="Zqc7V0Ubj0E-lgHhysYY-125" value="" style="rounded=1;whiteSpace=wrap;html=1;strokeWidth=2;fillWeight=4;hachureGap=8;hachureAngle=45;fillColor=light-dark(#9090FF,#198CC4);shadow=1;sketch=1;curveFitting=1;jiggle=2;fontStyle=1;verticalAlign=middle;align=center;" parent="1" vertex="1">
          <mxGeometry x="954" y="-950" width="72" height="50" as="geometry" />
        </mxCell>
        <mxCell id="Zqc7V0Ubj0E-lgHhysYY-126" value="" style="rounded=1;whiteSpace=wrap;html=1;strokeWidth=2;fillWeight=4;hachureGap=8;hachureAngle=45;fillColor=light-dark(#9090FF,#198CC4);shadow=1;sketch=1;curveFitting=1;jiggle=2;fontStyle=1;verticalAlign=middle;align=center;" parent="1" vertex="1">
          <mxGeometry x="944" y="-940" width="72" height="50" as="geometry" />
        </mxCell>
        <mxCell id="Zqc7V0Ubj0E-lgHhysYY-127" value="&lt;div&gt;&lt;span style=&quot;font-family: &amp;quot;Comic Sans MS&amp;quot;; text-wrap-mode: nowrap; background-color: transparent;&quot;&gt;Publisher&lt;/span&gt;&lt;/div&gt;" style="rounded=1;whiteSpace=wrap;html=1;strokeWidth=2;fillWeight=4;hachureGap=8;hachureAngle=45;fillColor=light-dark(#9090FF,#198CC4);shadow=1;sketch=1;curveFitting=1;jiggle=2;fontStyle=1;verticalAlign=middle;align=center;" parent="1" vertex="1">
          <mxGeometry x="933" y="-930" width="72" height="50" as="geometry" />
        </mxCell>
        <mxCell id="Zqc7V0Ubj0E-lgHhysYY-128" value="" style="rounded=1;whiteSpace=wrap;html=1;strokeWidth=2;fillWeight=4;hachureGap=8;hachureAngle=45;fillColor=light-dark(#9090FF,#198CC4);shadow=1;sketch=1;curveFitting=1;jiggle=2;fontStyle=1;verticalAlign=middle;align=center;rotation=90;" parent="1" vertex="1">
          <mxGeometry x="885" y="-970" width="52" height="30" as="geometry" />
        </mxCell>
        <mxCell id="Zqc7V0Ubj0E-lgHhysYY-129" value="" style="rounded=1;whiteSpace=wrap;html=1;strokeWidth=2;fillWeight=4;hachureGap=8;hachureAngle=45;fillColor=light-dark(#9090FF,#198CC4);shadow=1;sketch=1;curveFitting=1;jiggle=2;fontStyle=1;verticalAlign=middle;align=center;rotation=90;" parent="1" vertex="1">
          <mxGeometry x="893" y="-976" width="52" height="30" as="geometry" />
        </mxCell>
        <mxCell id="Zqc7V0Ubj0E-lgHhysYY-130" value="" style="rounded=1;whiteSpace=wrap;html=1;strokeWidth=2;fillWeight=4;hachureGap=8;hachureAngle=45;fillColor=light-dark(#9090FF,#198CC4);shadow=1;sketch=1;curveFitting=1;jiggle=2;fontStyle=1;verticalAlign=middle;align=center;rotation=90;" parent="1" vertex="1">
          <mxGeometry x="902" y="-986" width="52" height="30" as="geometry" />
        </mxCell>
        <mxCell id="Zqc7V0Ubj0E-lgHhysYY-131" value="PUB" style="text;html=1;align=center;verticalAlign=middle;resizable=0;points=[];autosize=1;strokeColor=none;fillColor=none;fontFamily=Architects Daughter;fontSource=https%3A%2F%2Ffonts.googleapis.com%2Fcss%3Ffamily%3DArchitects%2BDaughter;fontStyle=1" parent="1" vertex="1">
          <mxGeometry x="904" y="-985" width="50" height="30" as="geometry" />
        </mxCell>
        <mxCell id="Zqc7V0Ubj0E-lgHhysYY-132" value="&lt;span style=&quot;font-family: Helvetica; background-color: transparent;&quot;&gt;&lt;font style=&quot;&quot; face=&quot;Comic Sans MS&quot;&gt;JavaFX&lt;/font&gt;&lt;/span&gt;&lt;span style=&quot;color: light-dark(rgb(0, 0, 0), rgb(255, 255, 255)); background-color: transparent; font-family: &amp;quot;Comic Sans MS&amp;quot;;&quot;&gt;&amp;nbsp;mobile/desktop&amp;nbsp;&lt;/span&gt;&lt;div&gt;&lt;span style=&quot;color: light-dark(rgb(0, 0, 0), rgb(255, 255, 255)); background-color: transparent; font-family: &amp;quot;Comic Sans MS&amp;quot;;&quot;&gt;Modern GUI&lt;/span&gt;&lt;/div&gt;" style="text;html=1;align=center;verticalAlign=middle;resizable=0;points=[];autosize=1;strokeColor=none;fillColor=none;fontFamily=Architects Daughter;fontSource=https%3A%2F%2Ffonts.googleapis.com%2Fcss%3Ffamily%3DArchitects%2BDaughter;fontStyle=1" parent="1" vertex="1">
          <mxGeometry x="940" y="-1000" width="160" height="50" as="geometry" />
        </mxCell>
        <mxCell id="Zqc7V0Ubj0E-lgHhysYY-133" value="kerberos SSO&amp;nbsp;&lt;span style=&quot;background-color: transparent; color: light-dark(rgb(0, 0, 0), rgb(255, 255, 255));&quot;&gt;Authentication&lt;/span&gt;" style="text;html=1;align=center;verticalAlign=middle;resizable=0;points=[];autosize=1;strokeColor=none;fillColor=none;fontFamily=Architects Daughter;fontSource=https%3A%2F%2Ffonts.googleapis.com%2Fcss%3Ffamily%3DArchitects%2BDaughter;fontStyle=1" parent="1" vertex="1">
          <mxGeometry x="704" y="-364" width="190" height="30" as="geometry" />
        </mxCell>
      </root>
    </mxGraphModel>
  </diagram>
</mxfile>
